<svg xmlns="http://www.w3.org/2000/svg" width="246" height="249" fill="none"><path fill="#000" d="M245.68 50.075c0-27.614-22.386-50-50-50H50.794c-27.614 0-50 22.386-50 50v148.38c0 27.614 22.386 50 50 50H195.68c27.614 0 50-22.386 50-50z"/><path fill="#F7C496" d="M235.159 206.056c0 5.489-2.15 10.754-5.977 14.636a20.268 20.268 0 0 1-14.43 6.062H31.088a20.27 20.27 0 0 1-14.43-6.062c-3.827-3.882-5.977-9.147-5.977-14.636V92.214c0-5.49 2.15-10.754 5.977-14.635a20.26 20.26 0 0 1 14.43-6.062h22.237a34.44 34.44 0 0 0 28.78-15.524 34.44 34.44 0 0 1 28.781-15.525h24.067a34.44 34.44 0 0 1 28.781 15.524 34.44 34.44 0 0 0 28.78 15.524h22.238c5.412 0 10.603 2.18 14.43 6.063s5.977 9.147 5.977 14.636z"/><path fill="#000" d="M83.864 197.368a56 56 0 0 1 3.304 1.792c2.688 1.579 5.532 3.028 8.411 4.227 2.566 1.069 5.137 1.964 7.839 2.618l.55.135c3.354.832 6.783 1.346 10.236 1.475a134 134 0 0 1 2.972.143c2.276.134 4.557.148 6.829-.042l4.208-.351c2.642-.22 5.24-.784 7.791-1.509a79 79 0 0 1 1.218-.337c2.417-.651 4.701-1.548 6.966-2.617 2.532-1.196 5.032-2.604 7.258-4.304q1.47-1.122 2.975-2.196a68 68 0 0 0 4.954-4.094c1.561-1.421 2.856-3.006 4.14-4.68 2.194-2.862 4.213-5.947 5.761-9.205q1.155-2.434 2.355-4.846c.124-.246.203-.476.251-.748.409-2.331-1.955-4.394-4.143-3.487a161 161 0 0 1-5.652 2.218 5.65 5.65 0 0 0-2.89 2.383l-1.764 2.94a13.77 13.77 0 0 1-8.716 6.35 1430 1430 0 0 1-7.954 1.81 4.02 4.02 0 0 1-4.571-2.34c-.875-2.042-3.236-2.951-5.382-2.376q-1.466.393-2.969.611-2.541.423-5.453.104a7.7 7.7 0 0 0-1.658-.001q-.901.097-1.801.126c-2.278.072-4.343 1.692-4.962 3.885-.532 1.886-2.494 2.83-4.402 2.387a306 306 0 0 1-4.921-1.186 50 50 0 0 1-6.359-2.887 9.6 9.6 0 0 1-1.668-1.153q-.335-.285-.665-.577c-2.772-2.423-6.551-3.436-10.092-2.429q-3.854 1.096-7.655 2.137c-4.12 1.128-5.576 6.368-3.04 9.806M158.562 110.141a56 56 0 0 1-3.305-1.791c-2.687-1.579-5.531-3.028-8.411-4.227-2.566-1.069-5.137-1.964-7.838-2.618l-.55-.135c-3.354-.832-6.783-1.346-10.236-1.475q-1.487-.056-2.972-.143c-2.276-.134-4.557-.148-6.829.042l-4.208.35c-2.642.221-5.24.784-7.791 1.51a79 79 0 0 1-1.218.337c-2.417.651-4.702 1.548-6.966 2.617-2.532 1.196-5.033 2.604-7.258 4.304q-1.47 1.122-2.975 2.196a68 68 0 0 0-4.955 4.094c-1.56 1.42-2.855 3.006-4.139 4.68-2.195 2.862-4.213 5.947-5.76 9.205a291 291 0 0 1-2.356 4.845 2.6 2.6 0 0 0-.251.748c-.41 2.332 1.955 4.394 4.142 3.488q2.805-1.162 5.653-2.218a5.64 5.64 0 0 0 2.89-2.383l1.764-2.94a13.78 13.78 0 0 1 8.715-6.35q3.975-.916 7.955-1.81a4.02 4.02 0 0 1 4.571 2.339c.875 2.043 3.236 2.952 5.382 2.377a25 25 0 0 1 2.969-.611q2.541-.423 5.453-.104c.551.059 1.107.06 1.658 0a24 24 0 0 1 1.801-.125c2.278-.073 4.343-1.692 4.962-3.885.532-1.886 2.494-2.83 4.402-2.387q2.466.573 4.92 1.185a50 50 0 0 1 6.36 2.888 9.6 9.6 0 0 1 1.667 1.152q.335.287.666.577c2.772 2.424 6.551 3.437 10.092 2.43q3.854-1.096 7.655-2.137c4.12-1.129 5.576-6.368 3.039-9.807M154.635 159.067a27 27 0 0 1-3.014 2.6c-1.393 1.035-3.215 1.066-4.651.092-2.068-1.4-2.532-4.307-.876-6.175a36 36 0 0 1 3.779-3.697"/><path fill="#000" d="M143.92 144.781a77 77 0 0 1 6.285-.537c1.759-.075 3.516.091 5.254.364q1.436.226 2.957.453c1.437.212 2.838.638 4.115 1.333q1.286.698 2.715 1.544c.456.269.824.667 1.061 1.141.927 1.855-.421 4.035-2.494 4.026q-12.824-.054-25.643-.415c-3.1-.087-5.744-2.773-4.368-5.552"/><path fill="#000" d="M147.217 154.37q-.345.357-.681.723l.102-.111a42 42 0 0 1 1.01-1.05q.51-.509 1.039-.998-.755.698-1.47 1.436M100.442 159.884a27.4 27.4 0 0 1-3.014 2.6c-1.393 1.035-3.215 1.066-4.652.092-2.067-1.4-2.532-4.307-.875-6.175a36.4 36.4 0 0 1 3.779-3.697"/><path fill="#000" d="M89.727 145.598a77 77 0 0 1 6.285-.537c1.758-.075 3.516.091 5.254.364q1.436.226 2.957.453c1.437.212 2.838.638 4.114 1.333q1.287.698 2.716 1.544c.456.269.824.667 1.06 1.141.928 1.855-.421 4.035-2.493 4.026q-12.824-.054-25.643-.415c-3.1-.087-5.744-2.773-4.369-5.552"/></svg>