<svg xmlns="http://www.w3.org/2000/svg" width="193" height="193" fill="none">
    <path fill="#000"
        d="M0 30.196c0-16.569 13.432-30 30-30h132.663c16.568 0 30 13.431 30 30v132.662c0 16.569-13.432 30-30 30H30c-16.568 0-30-13.431-30-30z" />
    <path fill="#F7C496"
        d="M181.417 165.541c0 3.812-1.634 7.467-4.544 10.162s-6.855 4.209-10.97 4.209H26.277c-4.115 0-8.06-1.514-10.97-4.209s-4.544-6.35-4.544-10.162V86.503c0-3.811 1.634-7.467 4.544-10.162s6.855-4.209 10.97-4.209h17.749a25.92 25.92 0 0 0 21.036-10.778 25.92 25.92 0 0 1 21.036-10.778h19.984c8.337 0 16.166 4.011 21.036 10.778a25.92 25.92 0 0 0 21.036 10.778h17.749c4.115 0 8.061 1.514 10.97 4.21 2.91 2.694 4.544 6.35 4.544 10.16z" />
    <path fill="#000"
        d="M63.914 154.566q1.332.758 2.61 1.604a57 57 0 0 0 6.658 3.811c2.041.983 4.094 1.826 6.264 2.477l.441.134a41 41 0 0 0 8.265 1.653q1.208.11 2.412.247c1.847.21 3.703.322 5.56.268l3.44-.099c2.16-.063 4.299-.407 6.407-.885q.504-.114 1.006-.22c1.996-.423 3.895-1.052 5.785-1.822 2.113-.861 4.21-1.897 6.097-3.182q1.246-.847 2.518-1.656a56 56 0 0 0 4.213-3.112c1.333-1.087 2.456-2.32 3.575-3.626 1.912-2.232 3.692-4.654 5.095-7.237a243 243 0 0 1 2.131-3.839c.111-.195.187-.379.237-.597.436-1.88-1.397-3.663-3.217-3.022a129 129 0 0 1-4.698 1.555 4.6 4.6 0 0 0-2.457 1.812l-1.565 2.315a11.23 11.23 0 0 1-7.374 4.782q-3.275.57-6.553 1.122a3.274 3.274 0 0 1-3.617-2.106c-.622-1.701-2.503-2.545-4.275-2.171a21 21 0 0 1-2.443.365q-2.087.233-4.443-.156a6.4 6.4 0 0 0-1.349-.074q-.737.04-1.47.023c-1.858-.042-3.61 1.185-4.21 2.942-.517 1.512-2.155 2.193-3.689 1.748q-1.98-.575-3.951-1.182a41 41 0 0 1-5.048-2.631 8 8 0 0 1-1.306-1.011 61 61 0 0 1-.517-.499c-2.148-2.095-5.179-3.086-8.105-2.423a674 674 0 0 1-6.324 1.401c-3.403.736-4.82 4.936-2.907 7.846M127.435 113.521a27.6 27.6 0 0 1-3.033 2.616c-1.402 1.043-3.237 1.073-4.683.093-2.08-1.409-2.548-4.335-.881-6.215a36.6 36.6 0 0 1 3.804-3.721" />
    <path fill="#000"
        d="M116.65 99.141q3.152-.4 6.326-.541c1.77-.075 3.539.092 5.289.367q1.444.228 2.977.455c1.446.214 2.856.642 4.141 1.342q1.294.703 2.733 1.554c.459.272.829.672 1.068 1.149.933 1.867-.424 4.062-2.51 4.053q-12.908-.055-25.812-.418c-3.12-.088-5.782-2.791-4.397-5.589" />
    <path fill="#000"
        d="M119.968 108.793q-.347.359-.685.727l.103-.111a38 38 0 0 1 1.016-1.057q.513-.512 1.047-1.004l-2.647-.052q1.323.028 2.647.052-.76.702-1.481 1.445M72.886 114.343a27.6 27.6 0 0 1-3.034 2.617c-1.402 1.042-3.236 1.073-4.682.093-2.081-1.41-2.549-4.335-.882-6.216a37 37 0 0 1 3.804-3.721" />
    <path fill="#000"
        d="M62.1 99.964q3.152-.4 6.326-.542c1.77-.075 3.54.092 5.29.367q1.444.228 2.976.456c1.446.214 2.856.642 4.141 1.342q1.294.703 2.733 1.554c.46.271.83.671 1.068 1.148.933 1.867-.424 4.062-2.51 4.053q-12.908-.054-25.812-.418c-3.12-.088-5.782-2.791-4.397-5.588" />
    <circle cx="95.511" cy="124.133" r="8.889" fill="#000" />
</svg>